<svg xmlns="http://www.w3.org/2000/svg" xmlns:xlink="http://www.w3.org/1999/xlink" viewBox="0,0,256,256" width="48px" height="48px" fill-rule="nonzero"><g fill="none" fill-rule="nonzero" stroke="none" stroke-width="none" stroke-linecap="none" stroke-linejoin="none" stroke-miterlimit="10" stroke-dasharray="" stroke-dashoffset="0" font-family="none" font-weight="none" font-size="none" text-anchor="none" style="mix-blend-mode: normal"><g transform="scale(5.33333,5.33333)"><path d="M44.5,20.5h-3.5v-7c0,-1.1 -0.9,-2 -2,-2h-27.5c-1.1,0 -2,0.9 -2,2v27c0,2.2 1.8,4 4,4h30c1.7,0 3,-1.3 3,-3v-19c0,-1.1 -0.9,-2 -2,-2z" fill="#cff148" stroke="none" stroke-width="1" stroke-linecap="butt" stroke-linejoin="miter"></path><path d="M11.5,16.5h19" fill="none" stroke="#3f38e8" stroke-width="3" stroke-linecap="round" stroke-linejoin="round"></path><path d="M25,24.5h5.5" fill="none" stroke="#3f38e8" stroke-width="3" stroke-linecap="round" stroke-linejoin="round"></path><path d="M25,31.5h5.5" fill="none" stroke="#3f38e8" stroke-width="3" stroke-linecap="round" stroke-linejoin="round"></path><rect x="11.5" y="24.5" width="7" height="7" fill="none" stroke="#3f38e8" stroke-width="3" stroke-linecap="round" stroke-linejoin="round"></rect><path d="M5.5,26v-15.5c0,-1.7 1.3,-3 3,-3h25c1.7,0 3,1.3 3,3v4.3" fill="none" stroke="#3f38e8" stroke-width="3" stroke-linecap="round" stroke-linejoin="round"></path><path d="M39.5,40.5h-30c-2.2,0 -4,-1.8 -4,-4v-3.9" fill="none" stroke="#3f38e8" stroke-width="3" stroke-linecap="round" stroke-linejoin="round"></path><path d="M36.5,20.5v17c0,1.7 1.3,3 3,3v0c1.7,0 3,-1.3 3,-3v-24.2" fill="none" stroke="#3f38e8" stroke-width="3" stroke-linecap="round" stroke-linejoin="round"></path></g></g></svg>